# xmcd
#
# Track frame offsets:
#	150
#	16048
#	34623
#	49965
#	67828
#	83323
#	96839
#	113045
#	131132
#	147561
#	162276
#	176615
#	193906
#	208621
#	227918
#	243219
#	256206
#	274612
#	294021
#	310533
#	327421
#	346287
#
# Disc length: 4791 seconds
#
# Revision: 0
# Processed by: cddbd v1.5.2PL0 Copyright (c) Steve Scherf et al.
# Submitted via: EZCDAudioConverter 2.4.0.1
#
DISCID=2d12b516
DTITLE=V. A. - Sertanejos Românticos - Volume 03
DYEAR=2003
DGENRE=Sertanejo
TTITLE0=Daniel - Amor Absoluto
TTITLE1=Leonardo - De Corpo e Alma
TTITLE2=Bruno and Marrone - Vê Se Toma Juízo (Ao Vivo)
TTITLE3=Guilherme and Santiago - Abcde
TTITLE4=Edson and Hudson Feat. Kenny Rogers - Eu Não Sei Dizer Que Não Te Amo (I
TTITLE4=Can'T Unlove You)
TTITLE5=Daniel  - Quem Diria, Hein?
TTITLE6=Gian and Giovani - Te Amo
TTITLE7=Hugo and Thiago - Fora de Área
TTITLE8=Zezé Di Camargo and Luciano - Diz Pro Meu Olhar
TTITLE9=Edson and Hudson - Hei Você Aí
TTITLE10=Gian and Giovani - Amor Demais
TTITLE11=Guilherme and Santiago - Seu Amor É Tudo Que Eu Quero
TTITLE12=Rionegro and Solimões - Eu Menti
TTITLE13=Chitãozinho and Xororó - A Mais Bonita das Noites
TTITLE14=Ataíde and Alexandre - Deus Me Livre
TTITLE15=Chitãozinho and Xororó - Somos Apaixonados
TTITLE16=Chitãozinho and Xororó Feat. Jair Rodrigues - Majestade O Sabiá
TTITLE17=Gian and Giovanni - Convite de Casamento
TTITLE18=Milionário and José Rico - Sonho de Um Caminhoneiro
TTITLE19=Bruno and Marrone - Vida Vazia
TTITLE20=Bruno and Marrone - Agarrada Em Mim
TTITLE21=Chitãozinho and Xororó - Fio de Cabelo
EXTD=
EXTT0=
EXTT1=
EXTT2=
EXTT3=
EXTT4=
EXTT5=
EXTT6=
EXTT7=
EXTT8=
EXTT9=
EXTT10=
EXTT11=
EXTT12=
EXTT13=
EXTT14=
EXTT15=
EXTT16=
EXTT17=
EXTT18=
EXTT19=
EXTT20=
EXTT21=
PLAYORDER=
